# xmcd
#
# Track frame offsets:
#	150
#	14957
#	32377
#
# Disc length: 625 seconds
#
# Revision: 0
# Processed by: cddbd v1.5.1PL0 Copyright (c) Steve Scherf et al.
# Submitted via: audiograbber 1.83.01
#
DISCID=1d026f03
DTITLE=Linda Feller - Nur Bei Dir (Single)
DYEAR=2000
DGENRE=Country
TTITLE0=Nur Bei Dir
TTITLE1=Jetzt Lieb' Ich Dich Erst Recht
TTITLE2=??????? (ORIGINAL KARAOKE)
EXTD=
EXTT0=
EXTT1=
EXTT2=
PLAYORDER=
